<svg width="64" height="64" viewBox="0 0 64 64" fill="none" xmlns="http://www.w3.org/2000/svg">
<path id="Vector" d="M52.5222 0H11.4777C5.13874 0 0 5.13866 0 11.4775V52.5214C0 58.8603 5.13874 63.999 11.4777 63.999H52.5222C58.8611 63.999 63.9999 58.8603 63.9999 52.5214V11.4775C63.9999 5.13866 58.8611 0 52.5222 0Z" fill="#E9E9E9"/>
<path id="Vector_2" d="M64 15.5895V15.0425H49.2307V0.0010376H48.6836V15.0425H33.6409V0.0010376H33.0939V15.0425H17.7777V0.0010376H17.2307V15.0425H0.00012207V15.5895H17.2307V30.632H0.00012207V31.179H17.2307V46.2215H0.00012207V46.7685H17.2307V61.811H4.73869C5.00455 62.0042 5.27789 62.1877 5.56027 62.358H17.2307V64H17.7777V62.358H33.0939V64H33.6409V62.358H48.6836V64H49.2307V62.358H58.4398C58.7222 62.1877 58.9955 62.0042 59.2614 61.811H49.2307V46.7685H64V46.2215H49.2307V31.179H64V30.632H49.2307V15.5895H64ZM33.0939 61.811H17.7777V46.7685H33.0939V61.811ZM33.0939 46.2215H17.7777V31.179H33.0939V46.2215ZM33.0939 30.632H17.7777V15.5895H33.0939V30.632ZM48.6836 61.811H33.6409V46.7685H48.6836V61.811ZM48.6836 46.2215H33.6409V31.179H48.6836V46.2215ZM48.6836 30.632H33.6409V15.5895H48.6836V30.632Z" fill="#8EB9FC"/>
<path id="Vector_3" d="M21.6618 16.988H31.0847L41.6527 46.4896H33.0221L31.5691 41.9983H20.5168L19.0638 46.4896H10.7856L21.6618 16.988ZM29.2793 34.9972L26.065 25.0899L22.8507 34.9972H29.2793Z" fill="#3B63FB"/>
<path id="Vector_4" d="M42.9171 18.9253C42.9171 16.8118 44.5464 15.4468 47.0122 15.4468C49.4339 15.4468 50.9751 16.8559 50.9751 18.9253C50.9751 21.0389 49.4339 22.492 47.0122 22.492C44.4582 22.492 42.9171 21.083 42.9171 18.9253ZM43.1372 23.5047H50.843V46.4895H43.1372V23.5047Z" fill="#3B63FB"/>
<defs>
<clipPath id="clip0_2210_5224">
<rect width="64" height="64" fill="white"/>
</clipPath>
</defs>
</svg>
