<svg width="64" height="64" viewBox="0 0 64 64" fill="none" xmlns="http://www.w3.org/2000/svg">
<path id="Vector" d="M52.5222 0H11.4777C5.13874 0 0 5.13866 0 11.4775V52.5214C0 58.8603 5.13874 63.999 11.4777 63.999H52.5222C58.8611 63.999 63.9999 58.8603 63.9999 52.5214V11.4775C63.9999 5.13866 58.8611 0 52.5222 0Z" fill="#E9E9E9"/>
<path id="Vector_2" d="M64 15.5895V15.0425H49.2307V0.0010376H48.6836V15.0425H33.6409V0.0010376H33.0939V15.0425H17.7777V0.0010376H17.2307V15.0425H0.00012207V15.5895H17.2307V30.632H0.00012207V31.179H17.2307V46.2215H0.00012207V46.7685H17.2307V61.811H4.73869C5.00455 62.0042 5.27789 62.1877 5.56027 62.358H17.2307V64H17.7777V62.358H33.0939V64H33.6409V62.358H48.6836V64H49.2307V62.358H58.4398C58.7222 62.1877 58.9955 62.0042 59.2614 61.811H49.2307V46.7685H64V46.2215H49.2307V31.179H64V30.632H49.2307V15.5895H64ZM33.0939 61.811H17.7777V46.7685H33.0939V61.811ZM33.0939 46.2215H17.7777V31.179H33.0939V46.2215ZM33.0939 30.632H17.7777V15.5895H33.0939V30.632ZM48.6836 61.811H33.6409V46.7685H48.6836V61.811ZM48.6836 46.2215H33.6409V31.179H48.6836V46.2215ZM48.6836 30.632H33.6409V15.5895H48.6836V30.632Z" fill="#8EB9FC"/>
<path id="Vector_3" d="M14.1848 16.9888H22.375V39.4892H35.937V46.4903H14.1848V16.9888ZM48.1341 23.1092C49.9395 23.1092 51.3925 23.3294 52.0531 23.5495V29.538C51.5247 29.4058 50.5119 29.3177 49.6753 29.3177C48.0461 29.3177 47.1214 29.4499 46.2848 29.7581V46.4903H38.579V25.0466C41.353 23.8138 44.1271 23.1092 48.1341 23.1092Z" fill="#3B63FB"/>
<defs>
<clipPath id="clip0_2210_5508">
<rect width="64" height="64" fill="white"/>
</clipPath>
</defs>
</svg>
